PathFileType	4	(X/Y/Z)	41_2_13_p1_0-344_filt_butterworth.trc
DataRate	CameraRate	NumFrames	NumMarkers	Units	OrigDataRate	OrigDataStartFrame	OrigNumFrames
60.0	60.0	5	27	m	60.0	0	344
Frame#	Time	RHip			RKnee			RAnkle			RBigToe			RSmallToe			RHeel			LHip			LKnee			LAnkle			LBigToe			LSmallToe			LHeel			Neck			Head			Nose			RShoulder			RElbow			RWrist			RThumb			RIndex			RPinky			LShoulder			LElbow			LWrist			LThumb			LIndex			LPinky			
		X1	Y1	Z1	X2	Y2	Z2	X3	Y3	Z3	X4	Y4	Z4	X5	Y5	Z5	X6	Y6	Z6	X7	Y7	Z7	X8	Y8	Z8	X9	Y9	Z9	X10	Y10	Z10	X11	Y11	Z11	X12	Y12	Z12	X13	Y13	Z13	X14	Y14	Z14	X15	Y15	Z15	X16	Y16	Z16	X17	Y17	Z17	X18	Y18	Z18	X19	Y19	Z19	X20	Y20	Z20	X21	Y21	Z21	X22	Y22	Z22	X23	Y23	Z23	X24	Y24	Z24	X25	Y25	Z25	X26	Y26	Z26	X27	Y27	Z27	
0	0.0	0.29384932907917466	0.5268335607951187	-0.1383174301851219	0.3234290448577765	0.5785429412433336	0.29700852545430406	0.3475547292912532	0.69791670738276	0.7354010451250652	0.336311345440288	0.5028114862507378	0.7368554294108285	0.3917214633798678	0.5765293944935416	0.7682163320534396	0.3387566603330967	0.7862884684588097	0.8199443691644953	0.10001700415116942	0.5209973366071531	-0.1469731760556125	0.11498474819142207	0.5750077591314596	0.27870677610708505	0.11505166164334307	0.7127835123959348	0.7326188327385003	0.1442388459430147	0.552957751164373	0.7421188434605357	0.09279625342010428	0.5628867403979424	0.7484291053187047	0.12415259374464185	0.8193106895760701	0.810571168480297	0.18248041798913858	0.4797265184042786	-0.6842973946221099	0.18873954373852408	0.41709122272465327	-0.93953644972773	0.18105961892143033	0.3425051764393457	-0.7968325096334736	0.3182092460161938	0.44855369808042805	-0.597092375409127	0.3265694681865371	0.4087763570914996	-0.3212164056125157	0.21783555699860657	0.3177207098686054	-0.10561206841810582	0.15444961518379302	0.2556327801709889	-0.027200429884195063	0.16460393297914272	0.2711887734657043	0.005422555996560178	0.18280236172713588	0.3306652065579023	0.009613314491960805	0.04228306960489585	0.48286793199625855	-0.5915373261872476	0.03080502795452212	0.42730080734789905	-0.3332201375197184	0.08075626419775697	0.3169489654301024	-0.11172981512477215	0.15734436175910807	0.2589024526350291	-0.04262106312287239	0.15375407382937897	0.24395290938975706	-0.02426797428029917	0.12541217770676205	0.2948974897781887	0.01152155864717759
1	0.0166666666666666	0.29192615099977204	0.5212280313432391	-0.14191226410801658	0.3225302759783276	0.577806681676744	0.29601310045126183	0.34594188968750916	0.6931985977191883	0.7320730257408264	0.334986869849933	0.4999375606624371	0.7331203227577734	0.39269156762807955	0.563633536450175	0.7613358437415042	0.33693568772723465	0.7814752779235994	0.817479304097055	0.09972116026271322	0.5196221649595982	-0.14836839443065855	0.11494983576325155	0.5751090580833851	0.2778315647589665	0.11507800282042757	0.7127524587238538	0.7326361362224924	0.14555458352728518	0.5582117819385285	0.7447427211995714	0.09395179784382689	0.5743687093519446	0.7526604842979309	0.12526078521799378	0.8002841077595029	0.8026467156448488	0.18242328211602502	0.4798109300692156	-0.6842998019998003	0.18878994716408432	0.4169390804818964	-0.9395384186849226	0.18105640529814387	0.34262177204880856	-0.7968758320385008	0.31611350953137884	0.4483730660749603	-0.5971146190369618	0.32928351881668216	0.4153309594728235	-0.3192804459970528	0.21786715140902327	0.3177614018720563	-0.10440378555454044	0.15427598815446333	0.2554857772363064	-0.027319252645296922	0.16495321688517928	0.2724433066301109	0.004169148184656726	0.18047482664119885	0.33915032678966767	0.013990006738927665	0.04241565714969354	0.4829680741823065	-0.5908500118871175	0.030807646175932762	0.42741482477862974	-0.33326297821876405	0.08065145083630093	0.31699044425303224	-0.11186536054882892	0.15692653328578432	0.25840159096897414	-0.042853283862077374	0.15093371815046303	0.24729279737696763	-0.024656013049036148	0.12509091548230772	0.30010398339066396	0.011215790686229639
2	0.0333333333333333	0.2902582955107376	0.5163263568145607	-0.1444007193722881	0.3219873010343188	0.5773665917552014	0.2954240038209296	0.3447714302652201	0.6895322616602865	0.730442355166522	0.3348442779939019	0.4997822219865853	0.7306675678144053	0.39386901455181467	0.5575486578320117	0.7580402206625164	0.3355279439807657	0.7777421645399284	0.8154287428602939	0.09954620653025287	0.5187318987829379	-0.14881520625623226	0.11495465930955236	0.5750605524501664	0.27773181252969015	0.11509458495397983	0.7127182307974851	0.7326346686684927	0.14654438102612172	0.5623626421621016	0.7468260189667962	0.09426756511432882	0.5823453048747904	0.7558799037101666	0.12602811204715889	0.7888892119861669	0.7981566906786044	0.18239136759114105	0.47986439543774256	-0.6842957773647067	0.1888242124462134	0.4168361014713716	-0.9395285972771246	0.18102923954943312	0.34271778207961745	-0.7969957342102476	0.31508124375855034	0.4482490743967932	-0.5971996204486831	0.3309118771650768	0.4193219764431587	-0.3182637306130741	0.21791819690302555	0.31791785561765756	-0.10324251248191878	0.15409503565877553	0.2551983746698946	-0.027434320106597975	0.1655889587316787	0.27495075677998615	0.004006702424551621	0.1789288200914874	0.3443890601712419	0.017048709392668095	0.04251104418910345	0.4827259657167675	-0.5908771836846964	0.030817102040666705	0.4275413110788103	-0.33328549472134483	0.08100483288393678	0.31730271238349106	-0.11183985006038007	0.15672567868638085	0.2591825391650325	-0.042651420621299924	0.14943609661601143	0.25009946130575744	-0.024019960139221475	0.12472350881793712	0.3048847190984346	0.011541576859630354
3	0.05	0.2892187175022286	0.5132488914176327	-0.14546433770565875	0.321828214973859	0.5772403672884971	0.29527077099516497	0.34390308306567613	0.6866340770932533	0.730020487751615	0.3355263194036503	0.5015381465473487	0.7301791465757217	0.39489583537004713	0.5576806422200598	0.7580285803953279	0.33440634660014706	0.774709898596672	0.8137593033875639	0.09950880393380158	0.5183812387646338	-0.1485547816177652	0.11497551931433977	0.5749159561328125	0.27817216390492094	0.11508790040003282	0.7126617371201459	0.7325913736278108	0.14729595233213247	0.565666806799587	0.7484811896188821	0.0937635490549369	0.5854891116113796	0.757664951854158	0.1263296281666289	0.7855652551683667	0.7968559482169506	0.18239775130907487	0.4798492774708604	-0.6842878783158768	0.18883756361309603	0.4168089340942014	-0.9395054504501962	0.1809973442554738	0.34281371547693906	-0.7971082416270302	0.31487540123232005	0.4481978737696143	-0.5972519791686979	0.3313604304956541	0.42057629186232226	-0.3183489446966765	0.21816873319780458	0.3182038804659155	-0.10240511424649304	0.15410773648523707	0.2551147896028576	-0.027469553417853565	0.1665702139554827	0.2787441285009115	0.0049071660475758245	0.17836109399353345	0.3460156684134676	0.01832147006035445	0.04257398611605439	0.4822301008781075	-0.5913831096734694	0.030837114328652597	0.4276378575186414	-0.3332683144222324	0.08205020127612973	0.31802960169467964	-0.11136488553431673	0.15723433303873735	0.26250300018055955	-0.04167621420515661	0.14971200653483277	0.2524220084600382	-0.02266213314832018	0.12443864896582897	0.3081606495114242	0.012230168361515324
4	0.0666666666666666	0.28887382742420814	0.5122397423285823	-0.1455890670913966	0.32184950282794567	0.5772548294760143	0.2953169738563971	0.3432593702548763	0.6844349106485641	0.7296747370868449	0.3360711909444494	0.5030873423907449	0.731568915403099	0.3954533143021354	0.5595654843769208	0.7589633313759009	0.33356237975214664	0.772376890808966	0.8126569881452033	0.09954596829722949	0.5183046004535403	-0.1482671873159788	0.11497397046725795	0.5748078176896657	0.27855235498725395	0.11506030085991444	0.7125834526553911	0.7325172023104529	0.14776043780778497	0.5676719528374062	0.7494609796132836	0.09288989613876936	0.5853384127697161	0.757860065581466	0.12623988485095686	0.7860465764459508	0.7966688546774523	0.18244980168736283	0.47971790847431467	-0.6842834370908184	0.18883503899322104	0.41687782612230184	-0.9394745330592569	0.1810195378194366	0.3429759137486187	-0.7967885960105437	0.3146854880163797	0.4482014183460249	-0.5971570811734478	0.33123677135978213	0.42048967776043866	-0.31889768178262384	0.21875263443041226	0.3186055896159885	-0.10196881239107157	0.1548445198366422	0.2562317539226509	-0.02720408986152442	0.16785832879401763	0.28344188422687727	0.0061507403103691904	0.1787128485292079	0.3457921841534741	0.01836878486441291	0.04251839173846584	0.48209309548728524	-0.5917609355442166	0.030861788286939515	0.42768286110159004	-0.33319402739650744	0.08345629860660789	0.3189372545048409	-0.11025721417866549	0.1588873162579842	0.2683799880729931	-0.03998234342584314	0.15115218887891418	0.2557847460222027	-0.021510621109093218	0.12457858001648944	0.30919136478409615	0.01265084483512885
